<?xml version="1.0" encoding="utf-8"?>
<!-- Generator: Adobe Illustrator 21.1.0, SVG Export Plug-In . SVG Version: 6.00 Build 0)  -->
<svg version="1.1" xmlns="http://www.w3.org/2000/svg" xmlns:xlink="http://www.w3.org/1999/xlink" x="0px" y="0px"
	 viewBox="0 0 600 350" style="enable-background:new 0 0 600 350;" xml:space="preserve">
<style type="text/css">
	.st0{fill:#FFFFFF;}
	.st1{fill:#F29600;}
	.st2{fill:#FFF000;}
	.st3{clip-path:url(#SVGID_2_);}
	.st4{fill:#BE852A;}
	.st5{fill:#C8E5ED;}
	.st6{fill:#848484;}
	.st7{fill:none;stroke:#363737;stroke-width:6.882;stroke-linecap:round;stroke-linejoin:round;stroke-miterlimit:10;}
	.st8{fill:none;stroke:#363737;stroke-width:4.1292;stroke-linecap:round;stroke-linejoin:round;stroke-miterlimit:10;}
	.st9{fill:#FF9C9C;}
	.st10{fill:#FFFF99;}
	.st11{fill:#FFFFFF;stroke:#363737;stroke-width:4;stroke-miterlimit:10;}
	.st12{fill:#231815;}
	.st13{clip-path:url(#SVGID_4_);}
	.st14{fill:#5A8BB3;}
	.st15{fill:#AACBDC;}
	.st16{fill:none;stroke:#303433;stroke-width:3;stroke-linecap:round;stroke-linejoin:round;}
	.st17{fill:none;stroke:#303433;stroke-width:2.2;stroke-linecap:round;stroke-linejoin:round;}
	.st18{fill:none;stroke:#303433;stroke-width:4;stroke-linecap:round;stroke-linejoin:round;}
	.st19{fill:none;stroke:#303433;stroke-width:2;stroke-linecap:round;stroke-linejoin:round;}
	.st20{fill:#303433;}
	.st21{fill:none;stroke:#363737;stroke-width:4;stroke-linejoin:round;stroke-miterlimit:10;}
	.st22{fill:none;stroke:#231815;stroke-miterlimit:10;}
	.st23{fill:none;stroke:#231815;stroke-miterlimit:10;stroke-dasharray:2.0142,2.0142;}
	.st24{fill:none;stroke:#FF8888;stroke-width:11.0855;stroke-linecap:round;stroke-linejoin:round;stroke-miterlimit:10;}
	.st25{fill:none;stroke:#FFFFFF;stroke-width:4.0311;stroke-linecap:round;stroke-linejoin:round;stroke-miterlimit:10;}
	.st26{fill:none;stroke:#FF8888;stroke-width:11;stroke-linecap:round;stroke-linejoin:round;stroke-miterlimit:10;}
	.st27{fill:none;stroke:#FFFFFF;stroke-width:4;stroke-linecap:round;stroke-linejoin:round;stroke-miterlimit:10;}
	.st28{fill:none;stroke:#FF8888;stroke-width:9.9769;stroke-linecap:round;stroke-linejoin:round;stroke-miterlimit:10;}
	.st29{fill:#C61F4E;stroke:#FF8888;stroke-width:9.9769;stroke-linecap:round;stroke-linejoin:round;stroke-miterlimit:10;}
	.st30{fill:none;stroke:#FFFFFF;stroke-width:3.628;stroke-linecap:round;stroke-linejoin:round;stroke-miterlimit:10;}
	.st31{fill:#FFFFFF;stroke:#FFFFFF;stroke-width:3.628;stroke-linecap:round;stroke-linejoin:round;stroke-miterlimit:10;}
</style>
<g id="レイヤー_1">
	<title>キャラ紹介_素材+</title>
</g>
<g id="artboard">
	<g>
		<rect class="st0" width="600" height="350"/>
	</g>
</g>
<g id="main">
	<path class="st1" d="M103.2,237.8c-0.9,33.5-8.9,31.3-32.7,33.2c23.8,1.9,31.8-0.3,32.7,33.2c0.9-33.5,8.9-31.3,32.7-33.2
		C112.1,269.1,104.1,271.3,103.2,237.8z"/>
	<path class="st2" d="M103.2,247.9c-0.6,23.3-6.2,21.8-22.8,23.1c16.6,1.3,22.2-0.2,22.8,23.1c0.6-23.3,6.2-21.8,22.8-23.1
		C109.4,269.7,103.8,271.2,103.2,247.9z"/>
	<g>
		<path class="st1" d="M127.4,189.2c-0.6,21.4-5.7,20-20.9,21.2c15.2,1.2,20.3-0.2,20.9,21.2c0.6-21.4,5.7-20,20.9-21.2
			C133.1,209.2,128,210.6,127.4,189.2z"/>
		<path class="st2" d="M127.4,197.2c-0.4,13.4-3.6,12.5-13.1,13.3c9.5,0.8,12.7-0.1,13.1,13.3c0.4-13.4,3.6-12.5,13.1-13.3
			C131,209.7,127.8,210.5,127.4,197.2z"/>
	</g>
	<g>
		<defs>
			<rect id="SVGID_1_" x="9.9" y="12.6" width="561.6" height="322.4"/>
		</defs>
		<clipPath id="SVGID_2_">
			<use xlink:href="#SVGID_1_"  style="overflow:visible;"/>
		</clipPath>
		<g class="st3">
			<path class="st0" d="M424.7,383c-11.9-3.2-16.2,16-22,23.9c-25.7,34.4-72.5,17-79.4,7.3l-1.7-1c3.3-21.4-0.8-46.5-10.9-68.3
				c-5.8-12.5-4.8-36.3-2.1-48.6c2.7-12.3,15.4-34.7,16.4-37c1.1-2.4,2.5-4.9,3.9-7.6l1.6,0c16.5-3.7,37.6-28.4,38.5-54.6l-0.1-3.6
				c9.4-12,16.8-20.7,18.3-21.8l-0.1-1.5c4.9,0.9,10.2,0.5,13.1-3.2c1.4-1.8,2-3.8,2-5.7l1.4,0.2c2.7-0.7,4.6-3.1,5.3-6l1.5,1.3
				c21.2-9.6-3.4-39-30.1-15.1c-3.9,2.1-8.3,5.5-13.1,10l-0.1-1.7c-0.5-11.5-8.7-30.3-8.7-30.3s12.4-22.5,9.6-27.1
				s-38.1,1.8-38.1,1.8c-8.3-9.1-52-15.6-68.3-15.1l-0.1-1.4c0,0-21.1-20.2-23.9-20.2s-21.6,38.5-21.6,38.5l0.3,0.8
				c-6.2,4.8-14.9,12.8-23,23.3l-1.7-2.1c-4.1-6.9-7.3-9.2-13.8-9.2c-6.4,0-7.8,4.6-7.8,4.6l0,0c-4.7-0.9-9.9,0.8-12,5.5
				c-4.2,0-7.2,2.7-8.2,8.7c-1.4,8.7,11,12.8,11,12.8s9.6,16.7,11.7,29c-0.6,5.9-0.6,12.1,0.1,18.5c1.8,14.8,6.9,25.8,13.4,34.1
				l0,0.1c1.8,4.6,15.6,56.9,15.6,56.9l1.1,0.4c-13.5,22.7-28,54.6-28.8,87.2c-1.4,61.6,27.4,82.1,44.5,93.8l1.4-0.4
				c0,7.9,0,13.4,0,13.4s-39,40.4-43.8,51.3c-4.9,11.2,8.9,17.8,21.2,12.3c12.3-5.5,58.2-42.4,64.3-47.9c3.3-2.9,4.8-4.9,5.6-7.1
				l0.9,0.3c0,0,21.1,17.9,23.9,20.2s4.1,8.3,5,13.8c0.9,5.5,2.8,8.3,14.2,6.9c11.5-1.4,15.6-5.5,12.8-18.4
				c-2.8-12.8-34.4-40.4-36.7-42.2l-0.4-0.1c5.2-3.3,11.4-8,18.4-15.1c3.5-3.6,6.5-7.8,8.8-12.5l1.2,0.2
				c12.8,7.8,54.1,29.8,88.1,6.9S436.6,386.2,424.7,383z"/>
			<path class="st4" d="M424.7,383c-11.9-3.2-16.2,16-22,23.9c-5.1,6.8-11,11.6-17.2,14.8l12.5,24.1c2-1.1,4.1-2.2,6.1-3.6
				C438,419.2,436.6,386.2,424.7,383z"/>
			<g>
				<path class="st5" d="M296.7,292.3c-4.1,10.3-5.2,22.7-4.1,27.9c1,4.9,13.8,21.6,22.2,34.7c-1.2-3.4-2.6-6.7-4.1-10
					c-5.8-12.5-4.8-36.3-2.1-48.6c1.9-8.5,8.5-21.8,12.7-30C316.9,269.9,300.3,283.4,296.7,292.3z"/>
			</g>
			<path class="st5" d="M230.7,222.1c-6.8,9.6,9.3,28.9,27.9,29.9c18.6,1,22.7-11.4,19.6-14.5C275,234.5,235.8,214.9,230.7,222.1z"
				/>
			<g>
				<path class="st5" d="M220.4,460.2c0,7.9,0,13.4,0,13.4c0-9.3,27.9-53.3,36.1-63.6c8.3-10.3,5.2-28.9-1-31
					c-6.2-2.1-10.2,13.7-14.5,22.7c-4.3,9-20.6,14.5-20.6,14.5c-15.5-4.1-18.9-35-24.8-33c-6.2,2.1-9.3,21.7-3.1,32
					c6.2,10.3,22.7,23.7,22.7,23.7l-0.6,18.7c1.5,1.1,3,2.1,4.4,3.1L220.4,460.2z"/>
			</g>
			<path class="st6" d="M368.2,92.5c-2.8-4.6-38.1,1.8-38.1,1.8c16.5,10.1,28.4,25.2,28.4,25.2S371,97.1,368.2,92.5z"/>
			<path class="st4" d="M237.9,57.7c-2.8,0-21.6,38.5-21.6,38.5c6-3.2,32.4-18.8,45.4-18.4C261.8,77.9,240.7,57.7,237.9,57.7z"/>
			<path class="st7" d="M222.4,93c-11.6,6.8-55.4,43.8-49.3,95.1c6.2,51.3,53.4,58.2,53.4,58.2s-50.6,58.9-52,120.5
				c-1.4,61.6,27.4,82.1,44.5,93.8"/>
			<path class="st8" d="M244.3,176.5c0,11.6,4.8,17.8,14.4,19.2"/>
			<path class="st8" d="M242.9,236.1c4.8,6.2,19.8,8.9,25.3,5.5"/>
			<path class="st8" d="M221.7,364.8c-5.5,4.8-7.5,11.6-7.5,11.6"/>
			<line class="st8" x1="213.5" y1="367.5" x2="222.4" y2="374.3"/>
			<path class="st7" d="M195,399c4.1,20.5,17.1,27.4,34.2,28.1"/>
			<path class="st7" d="M252.5,388c-2.1,6.2,0,7.5-3.4,12.3c-3.4,4.8-28.7,36.3-28.7,49.3c0,13,0,24,0,24s-39,40.4-43.8,51.3
				c-4.9,11.2,8.9,17.8,21.2,12.3c12.3-5.5,58.2-42.4,64.3-47.9c6.2-5.5,6.2-7.5,6.8-14.4c0.7-6.8,15.1-4.8,37-27.4
				c21.9-22.6,21.2-67.1,4.8-102.7c-5.8-12.5-4.8-36.3-2.1-48.6c2.7-12.3,15.4-34.7,16.4-37c14.4-30.1,58.2-84.9,62.3-87.6"/>
			<path class="st7" d="M295.6,252.5c6.2-20.5,59-96.9,84.9-110.9c26.7-24,51.3,5.5,30.1,15.1"/>
			<path class="st7" d="M379.1,167c4.8,3.4,16.4,6.2,21.2,0c4.8-6.2,0-13.7-3.4-14.4"/>
			<path class="st7" d="M403.8,161.5c6.9-1.7,8.9-14.9-2.5-19.2"/>
			<path class="st7" d="M381.2,138.9"/>
			<path class="st8" d="M186.8,524.9c-4.1,4.8-2.7,11-2.7,11"/>
			<path class="st8" d="M193.4,527.5c-2.1,2.7-1.8,7.7-1.8,7.7"/>
			<path class="st7" d="M330.6,251.7c16.5-3.7,37.6-28.4,38.5-54.6"/>
			<path class="st7" d="M257.7,79.7c10.6-2.3,63.3,4.6,72.5,14.7c0,0,35.3-6.4,38.1-1.8s-9.6,27.1-9.6,27.1s8.3,18.8,8.7,30.3"/>
			<path class="st7" d="M261.8,77.9c0,0-21.1-20.2-23.9-20.2s-21.6,38.5-21.6,38.5"/>
			<path class="st7" d="M192.1,118.2c-4.1-6.9-7.3-9.2-13.8-9.2c-6.4,0-7.8,4.6-7.8,4.6"/>
			<path class="st7" d="M176.5,116.4c-5.5-4.6-15.6-4.1-18.4,3.7"/>
			<path class="st7" d="M165,121c-7.3-3.7-13.3-1.8-14.7,6.9c-1.4,8.7,11,12.8,11,12.8s10.6,18.4,11.9,30.7"/>
			<path class="st7" d="M186.6,222.4c1.8,4.6,15.6,56.9,15.6,56.9"/>
			<path class="st7" d="M269.6,472c-3.7,1.8-7.8,6.9-8.3,8.7"/>
			<path class="st7" d="M315.9,435.3c12.8,7.8,54.1,29.8,88.1,6.9s32.6-56,20.6-59.2c-11.9-3.2-16.2,16-22,23.9
				c-25.7,34.4-72.5,17-79.4,7.3"/>
			<path class="st7" d="M287.9,462.8c2.3,1.8,34,29.4,36.7,42.2c2.8,12.8-1.4,17-12.8,18.4c-11.5,1.4-13.3-1.4-14.2-6.9
				c-0.9-5.5-2.3-11.5-5-13.8s-23.9-20.2-23.9-20.2"/>
			<path class="st8" d="M306.3,514.2c-0.5,4.1,0.9,7.3,0.9,7.3"/>
			<path class="st8" d="M314.1,513.7c0.5,3.2,2.8,6.9,2.8,6.9"/>
			<path class="st5" d="M293.3,153.6c-7.4-3.7-22.7,7.2-11.4,13.4C293.3,173.2,299.5,156.7,293.3,153.6z"/>
			<path class="st8" d="M262.3,135c-4.4-0.3-15.8-1.4-20.6,4.1c-4.8,5.5-5.5,15.1,4.8,17.9c10.3,2.8,15.8-6.2,15.8-6.2
				s4.8,12.4,15.8,13.1c11,0.7,13.8-12.4,12.4-17.9C289.1,140.5,272.6,135.7,262.3,135z"/>
			<path class="st8" d="M262.3,140.5c-0.7,2.8,0,10.3,0,10.3"/>
			<path class="st8" d="M244.4,143.2c-6.2,0-37.2-4.1-40.6-2.8"/>
			<path class="st8" d="M202.4,159.1c2.8-2.1,40.6-8.3,40.6-8.3"/>
			<path class="st8" d="M284.3,156.3c12.4,4.8,35.8,22.7,35.8,22.7"/>
			<path class="st8" d="M282.9,148.7c7.6-0.7,44,11.7,44,11.7"/>
			<path class="st8" d="M214.8,118.5c4.8,0,18.6,0,18.6,0"/>
			<line class="st8" x1="232" y1="123.3" x2="217.5" y2="123.3"/>
			<line class="st8" x1="216.1" y1="128.1" x2="228.5" y2="128.1"/>
			<path class="st8" d="M309.1,133.6c7.6,0.7,15.1,2.8,15.1,2.8"/>
			<path class="st8" d="M305.6,141.9c7.6,0.7,15.1,2.8,15.1,2.8"/>
			<line class="st8" x1="308.4" y1="137.7" x2="323.5" y2="141.2"/>
			<path class="st9" d="M258.8,132.2c-2.1,4.1-0.7,8.3,3.4,8.3c4.1,0,9.6-2.1,9.6-4.8C271.9,132.9,260.4,129.1,258.8,132.2z"/>
			<path class="st8" d="M258.8,132.2c-2.1,4.1-0.7,8.3,3.4,8.3c4.1,0,9.6-2.1,9.6-4.8C271.9,132.9,260.4,129.1,258.8,132.2z"/>
			<polygon class="st10" points="363.6,466.2 415.8,517.2 418.6,539.2 			"/>
		</g>
	</g>
	<path class="st1" d="M373.3,266.7c-0.6,22.6-6,21.1-22.1,22.4c16.1,1.3,21.5-0.2,22.1,22.4c0.6-22.6,6-21.1,22.1-22.4
		C379.4,287.8,373.9,289.3,373.3,266.7z"/>
	<path class="st2" d="M373.3,275.1c-0.4,14.2-3.8,13.2-13.8,14c10.1,0.8,13.5-0.1,13.8,14c0.4-14.2,3.8-13.2,13.8-14
		C377.1,288.3,373.7,289.2,373.3,275.1z"/>
</g>
<g id="icon">
	<g>
		<g>
			<path class="st11" d="M508.2,26c-34.5,0-62.5,28-62.5,62.5c0,12.2,3.5,23.6,9.6,33.3c-1,7.2-5.3,16.2-19.4,21.1
				c10.3,8.3,25.5,3.4,35.4-4c10.3,7.6,23.1,12.1,36.9,12.1c34.5,0,62.5-28,62.5-62.5C570.8,54,542.8,26,508.2,26z"/>
		</g>
	</g>
	<g>
		<path class="st12" d="M493.4,40.6c1,0,2.1,0.2,2.1,1.8c0,0.7-0.2,2-0.3,2.7c-0.3,2.1-0.5,3.3-1.1,4.8c1.9,1.3,2,1.7,2,2.2
			c0,0.6-0.5,1.3-1.3,1.3c-0.4,0-0.4,0-1.8-1.3c-1,1.8-3,3.9-4,3.9c-0.6,0-1.2-0.7-1.2-1.3c0-0.4,0.2-0.7,0.8-1.1
			c1.4-1.2,2.1-2.1,2.6-2.8c-0.8-0.5-0.9-0.6-1.9-1.2c-0.4-0.3-1-0.6-1-1.4c0-0.2,0.1-0.4,0.3-1.5c0.4-1.5,0.5-2.4,0.7-3.5
			c-0.7,0-1.5,0-1.5-1.2c0-1.2,0.9-1.2,1.2-1.2h0.6c0-0.3,0.3-2.6,0.3-2.7c0.1-0.7,0.6-0.8,1.1-0.8c0.3,0,1.3,0,1.3,1
			c0,0.4-0.2,1.9-0.3,2.5H493.4z M491.7,43c-0.3,1.6-0.4,2.3-0.8,3.9c0,0.1-0.1,0.5-0.1,0.6c0,0.3,0.2,0.4,0.4,0.5
			c0.1,0.1,0.6,0.3,1.1,0.6c0.2-0.6,0.6-1.5,0.9-4.3c0-0.1,0.1-0.7,0.1-0.9c0-0.4-0.2-0.5-0.5-0.5H491.7z M502.4,53.4
			c0,2.6-1.1,2.6-3.2,2.6c-0.7,0-1.7,0-2.2-0.1c-0.3-0.1-0.9-0.3-0.9-1.4c0-1.3,1-1.3,1.3-1.3c0.3,0,1.4,0,1.7,0
			c0.4,0,0.8-0.1,0.8-0.8v-4.9h-3.3c-0.3,0-1.2,0-1.2-1.2c0-1,0.5-1.3,1.2-1.3h3.3v-1.5c0-0.3,0-1.1,1.1-1c0.5-0.4,1.8-1.5,1.8-2.1
			c0-0.2-0.3-0.2-0.5-0.2h-5c-0.3,0-1.2,0-1.2-1.2c0-1.1,0.7-1.2,1.2-1.2h6.8c0.6,0,2,0,2,1.6c0,1.8-2.2,3.5-3.6,4.6v1.1h3.1
			c0.3,0,1.3,0,1.3,1.2c0,1.1-0.5,1.3-1.3,1.3h-3.1V53.4z"/>
		<path class="st12" d="M523.5,42c-0.6,1.7-1.4,4.4-3.9,7.2c-0.6,0.7-1.7,1.8-2.4,1.8c-0.7,0-1.2-0.6-1.2-1.2c0-0.5,0.3-0.7,0.6-1
			c1-0.8,3.4-2.7,4.6-6.8H520c-0.3,0.6-0.9,2-1.6,3c-0.4,0.5-0.8,0.6-1,0.6c-0.6,0-1.3-0.5-1.3-1.3c0-0.4,0.2-0.6,0.4-0.9
			c-0.1,0-0.1,0-0.2,0h-1v3c0.9-0.4,1-0.5,1.2-0.5c0.6,0,1,0.6,1,1.4c0,0.7-0.3,1-2.2,1.8v5.7c0,0.3,0,1.2-1.1,1.2
			c-0.9,0-1.3-0.3-1.3-1.2v-4.6c-0.8,0.4-1.9,0.8-2.4,0.8c-0.8,0-1.2-0.8-1.2-1.4c0-0.8,0.6-1,1.2-1.2c0.8-0.3,1.7-0.6,2.4-0.9v-4.1
			h-1c-0.1,0.6-0.4,2-0.4,2.1c-0.1,0.3-0.2,0.8-1,0.8c-0.3,0-1.1-0.1-1.1-1c0-0.3,0.4-1.7,0.5-2.1c0.3-1.5,0.4-2.5,0.4-4
			c0-0.3,0.1-1,1-1c0.9,0,0.9,0.7,0.9,1c0,0.2,0,1.3-0.1,1.7h0.8v-2.5c0-0.4,0-1.2,1.1-1.2c0.9,0,1.3,0.3,1.3,1.2v2.5h1
			c0.9,0,1,0.7,1,1.3c0.9-1.5,1.1-2.3,1.5-3.7c0.2-0.8,0.4-1.3,1.3-1.3c0.7,0,1.3,0.4,1.3,1c0,0.4-0.2,0.9-0.3,1.5h4.2
			c2.5,0,2.6,1.4,2.6,3.4c0,0.8,0,7-0.6,9.9c-0.5,2.7-1.3,3-3.4,3c-0.5,0-1.6,0-2-0.2c-0.5-0.2-0.7-0.8-0.7-1.2
			c0-0.2,0.1-1.2,1.1-1.2c0.2,0,1.1,0.1,1.3,0.1c1,0,1.2-0.3,1.4-2c0.2-1.7,0.3-3.5,0.4-5.3c-1.3,3.3-2.7,6.2-6.4,9
			c-0.5,0.4-0.7,0.4-1,0.4c-0.7,0-1.3-0.6-1.3-1.3c0-0.6,0.5-0.9,0.9-1.2c1.5-1.1,3.4-2.7,5-5.9c1.2-2.3,1.7-4.1,2-5.2H523.5z"/>
	</g>
	<g>
		<path class="st12" d="M492.5,167.3c1.4,0,2.8,0.4,2.8,2.7c0,0.2-0.3,8-1.8,10.5c-0.9,1.5-2.3,1.7-4.2,1.7c-0.6,0-1.9,0-1.9-1.5
			c0-1.3,0.9-1.3,1.4-1.3c1.5,0,1.7,0,2-0.3c1.2-0.9,1.6-7.4,1.6-8.1c0-0.6-0.2-0.9-0.9-0.9h-4c-0.5,3.8-1.4,6.8-4.4,9.9
			c-0.3,0.3-2.3,2.3-3.3,2.3c-0.8,0-1.5-0.8-1.5-1.6c0-0.5,0.2-0.6,1.5-1.8c3.2-2.6,4.2-5.1,4.8-8.8h-5.4c-0.4,0-1.5,0-1.5-1.4
			c0-1.4,1.1-1.4,1.5-1.4h5.7c0-0.5,0-3.2,0.2-3.6c0.2-0.5,0.7-0.7,1.4-0.7c1.5,0,1.5,0.8,1.5,1.8c0,1-0.1,2.3-0.1,2.5H492.5z"/>
		<path class="st12" d="M501,165.3c0.7,0,0.9,0.4,1.6,1.5c0.5,0.8,1.7,2.8,1.7,3.5c0,0.8-1,1.4-1.7,1.4c-0.7,0-0.9-0.4-1.4-1.5
			c-0.4-0.7-0.5-0.9-1.5-2.6c-0.1-0.2-0.3-0.6-0.3-0.9C499.3,165.9,500.2,165.3,501,165.3z M517.3,165.9c0,0.2-0.6,6.3-4.4,10.9
			c-3.3,4-7.9,5.6-8.7,5.6c-0.8,0-1.4-0.8-1.4-1.6c0-0.8,0.2-0.9,2-1.7c7.2-3.2,8.6-8.5,9.4-12.7c0.2-1.1,0.4-1.8,1.5-1.8
			C516.4,164.6,517.3,164.9,517.3,165.9z M506.4,164.1c0.7,0,1,0.4,1.8,1.9c0.1,0.2,1.4,2.6,1.4,3.2c0,0.9-1.1,1.4-1.7,1.4
			c-0.7,0-0.9-0.4-1.4-1.5c-0.4-0.9-1.2-2.3-1.3-2.6c-0.2-0.4-0.5-0.8-0.5-1.1C504.7,164.7,505.5,164.1,506.4,164.1z"/>
		<path class="st12" d="M522.5,170.4c-0.5,0-1.5,0-1.5-1.4c0-1.2,0.8-1.4,1.5-1.4h8.9l0-3.1c0-0.4,0-1.3,1.4-1.3
			c1,0,1.4,0.4,1.4,1.3l0,3.1h4.1c0.5,0,1.5,0,1.5,1.4c0,1.3-0.9,1.4-1.5,1.4h-4.1l0.1,8.7c0,2.7-0.5,3.5-3.9,3.5
			c-0.6,0-1.9,0-1.9-1.5c0-1.3,1-1.3,1.3-1.3c1.6,0,1.7,0,1.7-0.9l0-5.8c-1,1.3-2.9,3.5-5.9,5.8c-2.2,1.7-2.5,1.7-2.9,1.7
			c-0.8,0-1.4-0.9-1.4-1.6c0-0.6,0.4-0.9,1.4-1.6c3.7-2.6,6.1-5.3,7.3-7H522.5z"/>
	</g>
	<g>
		<defs>
			<circle id="SVGID_3_" cx="508.2" cy="88.5" r="62.5"/>
		</defs>
		<clipPath id="SVGID_4_">
			<use xlink:href="#SVGID_3_"  style="overflow:visible;"/>
		</clipPath>
		<g class="st13">
			<path class="st0" d="M466.3,77c-3.2,0.7-6.1,0.8-8.5,0.4c16.2,24.9,36.2,39.8,59.8,44.8c23.7,5,44.6,1,62.9-11.9
				c-36.9-20.9-77.6-34.6-122.1-41.1C461.5,72.8,464.2,75.4,466.3,77"/>
			<path class="st14" d="M458.4,70.3c7,2.3,19,5.7,36,10.2c15.5,4.1,26.8,7.5,33.9,10.1c1.9,0.7,9.7,4.5,23.3,11.4
				c9.3,4.7,17.5,7.3,24.6,7.8c0.7-0.7,0.5-1.7-0.6-3.2c-20.4-20.3-44.6-32.9-72.5-37.7c-8.7-1.5-17.3-2.2-25.7-1.9l-10,0.8
				L458.4,70.3z"/>
			<path class="st15" d="M544.2,75.7c1.8-0.6,3.6-1.1,5.4-1.4c-6.2-1.2-14-2.1-23.6-2.6l-12.4-0.5l24,8.3
				C538.3,78.2,540.5,76.9,544.2,75.7"/>
			<path class="st15" d="M547.8,124.2l-16.6,0.9l9.2,3.2c6.6,2.1,11.1,3,13.5,2.7L547.8,124.2z"/>
			<path class="st15" d="M510.2,99.2l16-1.7c-1.9-1-6.2-2.5-12.9-4.6l-9.5-3L510.2,99.2z"/>
			<path class="st14" d="M557,103.2l-5.2-1.9c-1.7,0.8-4.1,1.7-7.2,2.7c-6.2,1.8-12.6,3.1-19.3,3.8l-0.2,0.1c0,0.1,0,0.2,0.2,0.3
				C532.2,109.7,542.7,108,557,103.2"/>
			<path class="st14" d="M566.3,107l-4.7-1.4c-2.1,1.6-5.2,3.1-9.2,4.5c-8,2.9-16.6,4.2-26,3.7c-0.1,0-0.2,0-0.4,0
				c-0.2,0.1-0.1,0.3,0.2,0.5l7.1,1.2c5.9,0.5,11.8-0.1,17.7-1.8C558.8,111.1,563.9,108.8,566.3,107"/>
			<path class="st0" d="M487.7,78.6c0.5-1.3,0.5-2.6,0-3.8c-0.5-1.2-1.4-2-2.5-2.4c-1.1-0.4-2.3-0.3-3.5,0.3c-1.1,0.7-2,1.6-2.4,2.9
				c-0.5,1.3-0.5,2.6,0,3.8c0.5,1.2,1.4,2,2.5,2.4c1.1,0.4,2.3,0.3,3.5-0.3C486.4,80.9,487.2,79.9,487.7,78.6"/>
			<path class="st16" d="M573.6,114.6c-4.3,3.3-10.3,6-17.9,8c-15.2,4.1-31.2,3.1-48-3c-14.7-5.3-27.4-14-38.2-25.9
				c-3.4-3.8-6.3-7.6-8.9-11.5l-2.8-4.8l10.8,1.1c-0.6-0.6-4-3.2-10.3-7.7c1.2-1,3-1.8,5.7-2.5c1.3-0.3,2.5-0.6,3.6-0.7l9.9-0.7
				c8.4-0.1,16.9,0.6,25.6,2.1c27.8,5,52,17.6,72.6,37.7"/>
			<path class="st17" d="M514,71.1l12.2,0.4c9.4,0.5,17.4,1.5,23.9,2.9c-1.8,0.3-3.6,0.8-5.6,1.4c-3.9,1.1-6.3,2.3-7.3,3.5"/>
			<path class="st17" d="M531.1,125.1l9.2,3.3c6.6,2.1,11.1,3,13.5,2.7l-6.1-6.9"/>
			<path class="st18" d="M504.9,76.1l0.9,1.3c0.6,1.1,0.9,2.4,0.7,3.8c-0.3,4.5-3.9,9.5-10.7,14.8c-2,1.5-3.7,2.6-5.2,3.3"/>
			<path class="st16" d="M503.7,90l9.5,3c6.8,2.1,11.1,3.7,12.9,4.6l-16,1.7L503.7,90z"/>
			<path class="st19" d="M488.1,78.8c-0.5,1.3-1.3,2.3-2.6,2.9c-1.2,0.6-2.5,0.6-3.8,0.1c-1.3-0.5-2.3-1.3-2.9-2.6
				c-0.6-1.3-0.6-2.6-0.1-3.9c0.5-1.3,1.3-2.3,2.6-2.9c1.3-0.6,2.6-0.6,3.9-0.1c1.3,0.5,2.2,1.3,2.8,2.5
				C488.6,76.2,488.6,77.5,488.1,78.8z"/>
			<path class="st20" d="M485.9,78c0.3-0.7,0.2-1.4,0-2c-0.3-0.7-0.8-1.1-1.5-1.4c-0.6-0.2-1.3-0.2-2,0.1c-0.7,0.3-1.1,0.8-1.4,1.5
				c-0.3,0.7-0.2,1.4,0.1,2c0.3,0.7,0.8,1.1,1.5,1.4s1.3,0.2,2-0.1C485.2,79.2,485.6,78.7,485.9,78"/>
			<path class="st15" d="M589.8,133.3l-2.4-17.6l12.7-14.1c-6.7,2-12.9,3.6-18.5,4.7l-6.5,1c-0.1,0-0.1,0.7-0.1,2.2
				c-0.3,1.8-1.1,3.3-2.4,4.6l0.8,0.7C579.8,122.4,585.3,128.5,589.8,133.3"/>
			<path class="st17" d="M575.6,106.6l6.3-0.9c5.5-1,11.6-2.5,18.4-4.5l-12.7,14.1l2.4,17.6c-4.6-4.8-10.1-10.9-16.4-18.4"/>
		</g>
	</g>
	<g>
		<g>
			<path class="st21" d="M508.2,26c-34.5,0-62.5,28-62.5,62.5c0,12.2,3.5,23.6,9.6,33.3c-1,7.2-5.3,16.2-19.4,21.1
				c10.3,8.3,25.5,3.4,35.4-4c10.3,7.6,23.1,12.1,36.9,12.1c34.5,0,62.5-28,62.5-62.5C570.8,54,542.8,26,508.2,26z"/>
		</g>
	</g>
	<g>
		<rect x="428" y="248.6" class="st0" width="153" height="81"/>
		<path class="st12" d="M580.5,249.1v80h-152v-80H580.5 M581.5,248.1h-154v82h154V248.1L581.5,248.1z"/>
	</g>
	<g>
		<path class="st12" d="M445,260.8c0,1.6-0.4,3.9-0.5,4.6c-0.1,0.6-0.2,1-0.8,1c-0.3,0-0.8-0.2-0.8-0.7c0-0.3,0.3-1.7,0.4-2
			c0.1-0.8,0.2-2.1,0.3-3.1c0-0.7,0.5-0.7,0.8-0.7C445,260,445,260.5,445,260.8z M447.9,274.6c0,0.3,0,1-1.1,1s-1.1-0.6-1.1-1v-17.8
			c0-0.3,0-1,1.1-1c1.1,0,1.1,0.6,1.1,1V274.6z M450,260.9c0.1,0.4,0.4,1.1,0.4,1.4c0,0.6-0.7,0.8-0.9,0.8c-0.4,0-0.5-0.2-0.8-1.1
			c0,0-0.3-0.9-0.4-1.3c-0.1-0.2-0.1-0.3-0.1-0.4c0-0.5,0.4-0.8,0.8-0.8C449.5,259.5,449.5,259.8,450,260.9z M455.4,260.4v-3.5
			c0-0.3,0-1,1-1c1,0,1.2,0.4,1.2,1v3.5h3.8c0.2,0,1,0,1,1c0,1-0.8,1-1,1h-3.8v4h3.3c0.2,0,1,0,1,1c0,1-0.8,1-1,1h-3.3v4.4h4.1
			c0.2,0,1,0,1,1c0,1-0.8,1-1,1h-11.5c-0.2,0-1,0-1-1c0-1,0.8-1,1-1h5.1v-4.4h-3.8c-0.4,0-1-0.1-1-1c0-1,0.8-1,1-1h3.8v-4h-2.8
			c-0.6,1.8-1.1,2.8-1.3,3.1c-0.2,0.2-0.4,0.3-0.7,0.3c-0.5,0-1.1-0.4-1.1-1c0-0.2,0.1-0.4,0.2-0.5c1.2-2.6,1.4-3.3,2-6.7
			c0.1-0.7,0.5-0.8,0.9-0.8c0.3,0,1.1,0,1.1,0.9c0,0.6-0.3,2-0.5,2.6H455.4z"/>
		<path class="st12" d="M473.1,265.7c1.4,0,2.8,0,2.8,2.2c0,0.3-0.1,4.8-0.8,6.2c-0.6,1.3-1.5,1.3-3.4,1.3c-0.7,0-1.6,0-1.6-1.2
			c0-1,0.8-1,1-1c0.2,0,1.2,0,1.4,0c0.6-0.1,0.7-0.6,0.8-1.1c0.2-1.1,0.3-2.9,0.3-3.5c0-0.9-0.4-1-1.1-1h-2.5
			c-0.4,3.4-1.2,5.2-2.3,7c-0.4,0.6-0.6,0.8-1,0.8c-0.8,0-1.3-0.6-1.3-1.1c0-0.3,0.1-0.6,0.5-1.1c1.1-1.8,2.2-3.9,2.3-9.3
			c-0.7,0-1.3-0.2-1.6-0.5c-0.4-0.4-0.5-0.9-0.5-1.8v-2.8c0-1.8,0.7-2.3,2.3-2.3h5.3c1.6,0,2.3,0.5,2.3,2.3v2.8
			c0,1.8-0.7,2.3-2.3,2.3h-3.4c0,0.7,0,1.2-0.1,1.8H473.1z M474.1,259.1c0-0.5-0.3-0.8-0.8-0.8H469c-0.6,0-0.8,0.4-0.8,0.8v2.1
			c0,0.5,0.3,0.8,0.8,0.8h4.4c0.4,0,0.8-0.1,0.8-0.8V259.1z M479.9,269.8c0,0.3,0,1.1-1,1.1c-0.7,0-1.1-0.3-1.1-1.1V258
			c0-0.3,0-1.1,1-1.1c0.9,0,1,0.5,1,1.1V269.8z M482.3,256.9c0-0.3,0-1.1,1-1.1c0.8,0,1.1,0.3,1.1,1.1v16.2c0,2.4-1.2,2.4-3.4,2.4
			c-0.5,0-1.3,0-1.6-0.1c-0.5-0.1-0.7-0.7-0.7-1.1c0-1.1,0.9-1.1,1.2-1.1c0.2,0,1.3,0,1.5,0c0.5,0,0.9-0.1,0.9-0.9V256.9z"/>
		<path class="st12" d="M441.7,318.8c-1.6,1-2,1.1-2.5,1.1c-1.2,0-1.9-1.1-1.9-2c0-0.8,0.4-1.1,1.8-1.9c2.4-1.4,6.8-4.3,10.5-9.4
			c-2.2-1.7-4.6-3.2-7-4.7c-0.7-0.4-1.1-0.8-1.1-1.5c0-0.8,0.7-1.8,1.7-1.8c1.3,0,6.6,3.7,8.3,5c2.2-3.7,3.2-7.1,3.8-9.1
			c0.3-1.1,0.9-1.5,1.6-1.5c0.3,0,2.1,0.1,2.1,1.6c0,0.9-1.8,6.3-4.7,11.2c1.7,1.4,2.8,2.4,4.7,4.3c1.2,1.2,1.5,1.6,1.5,2.3
			c0,1.1-0.9,2-1.9,2c-0.8,0-1.2-0.5-1.8-1.1c-1.8-2-2.8-2.9-4.5-4.4C451.2,310.4,447.7,315,441.7,318.8z"/>
		<path class="st12" d="M468.9,298.3c-0.6,0-1.8-0.1-1.8-1.7c0-1.3,0.8-1.7,1.8-1.7h15.3c0.9,0,3.3,0,3.3,2.4c0,1.8-2.1,6.2-4.8,10
			c1.6,1.3,4,3.3,7.2,7c0.8,0.9,1.9,2.2,1.9,3c0,0.9-0.8,1.9-1.9,1.9c-0.8,0-0.9-0.1-2.5-2c-2.8-3.3-4.6-4.9-7-7
			c-5.6,6.5-12.1,9.6-13.2,9.6c-1.3,0-1.7-1.3-1.7-1.9c0-0.9,0.3-1,2.4-2.1c11.1-5.7,15.2-15.8,15.2-16.8c0-0.5-0.5-0.5-1.1-0.5
			H468.9z"/>
	</g>
	<g>
		<path class="st12" d="M539.4,257.8c0.3,0,1.1,0,1.1,1c0,0.8-0.4,1.1-1.1,1.1h-5.7v2.9h5c0.3,0,1.1,0,1.1,1c0,0.8-0.3,1.1-1.1,1.1
			h-5v3.8h6.5c0.3,0,1.1,0,1.1,1s-0.7,1-1.1,1h-6.5v4c0,0.4,0,1.1-1.1,1.1c-1,0-1.2-0.4-1.2-1.1v-4h-8.9c-0.3,0-1.1,0-1.1-1
			c0-1,0.7-1,1.1-1h2.1v-3.5c0-1.7,0.7-2.3,2.3-2.3h4.4v-2.9h-4.6c-0.8,1.3-1.7,2.4-2.5,3.3c-1,1-1.2,1.1-1.5,1.1
			c-0.7,0-1.3-0.6-1.3-1.3c0-0.4,0.2-0.7,0.5-0.9c1.8-1.7,2.7-2.7,4.1-5.5c0.2-0.4,0.4-0.7,1-0.7s1.3,0.4,1.3,1c0,0.3-0.1,0.5-0.4,1
			H539.4z M531.4,268.6v-3.8h-3.7c-0.6,0-0.8,0.3-0.8,0.8v2.9H531.4z"/>
		<path class="st12" d="M556.9,264c-0.5,0-1-0.1-1-1c-0.3,0.3-0.5,0.5-0.8,0.5c-0.5,0-0.9-0.4-1.1-1c-0.1,0-0.2,0.1-0.5,0.1h-8.9
			c-0.2,0-1,0-1-0.9c0-0.8,0.5-0.9,0.8-0.9h0.6v-3.2c0-0.3,0-1,0.9-1s1,0.7,1,1v3.2h1.5v-4.1c0-0.3,0-1,1-1s1,0.6,1,1v0.9h2.7
			c0.4,0,0.9,0.1,0.9,0.8c0,0.6-0.4,0.8-0.9,0.8h-2.7v1.5h3c0.8,0,0.9,0.4,0.9,0.7c1-1.2,1.6-2,2.5-4.4c0.3-0.6,0.5-1.3,1.5-1.3
			c0.9,0,1.2,0.3,1.7,1.3c0.3,0.7,1.2,2.5,2.3,3.8c1,1.1,1,1.1,1,1.5c0,0.5-0.4,1.2-1.1,1.2c-0.4,0-0.6-0.2-0.8-0.5
			c0,0.8-0.4,1.1-1,1.1H556.9z M547.1,267.9c-0.5,0-0.9-0.2-0.9-0.8c0-0.5,0.3-0.7,0.9-0.7h1.6v-2.6c0-0.2,0.1-0.7,0.7-0.7
			c0.6,0,0.7,0.5,0.7,0.7v2.6h1.6c0.4,0,0.9,0.1,0.9,0.7c0,0.4-0.2,0.8-0.9,0.8h-1c0.4,0.8,0.9,1.5,1.4,2.2c0.4,0.6,0.5,0.6,0.5,0.9
			c0,0.4-0.4,0.8-0.7,0.8c-0.2,0-0.4-0.1-0.9-0.9c-0.1-0.2-0.4-0.7-0.7-1.4v2.8c0,0.5-0.2,0.8-0.7,0.8c-0.5,0-0.7-0.3-0.7-0.8v-2.7
			c-0.1,0.3-0.6,1.1-1.1,1.9c-0.3,0.3-0.4,0.5-0.7,0.5c-0.2,0-0.5-0.1-0.7-0.7v1.5c0,0.4,0.2,0.6,0.6,0.6h5.2c0.4,0,0.6-0.2,0.6-0.6
			v-8.5c0-0.5,0.2-0.9,0.8-0.9c0.5,0,0.8,0.3,0.8,0.9v8.8c0,1.7-0.7,2.1-2.1,2.1h-5.5c-1.4,0-2.1-0.5-2.1-2.1v-8.8
			c0-0.5,0.2-0.9,0.8-0.9c0.4,0,0.9,0.1,0.9,0.9v6.7c0-0.1,0.4-0.5,0.5-0.7c0.2-0.2,0.9-1.1,1.5-2.2H547.1z M546.9,265.2
			c-0.1-0.2-0.3-0.9-0.4-1c0-0.1-0.1-0.2-0.1-0.3c0-0.3,0.3-0.5,0.6-0.5c0.4,0,0.4,0.2,0.7,0.8c0.3,0.8,0.4,1.1,0.4,1.4
			c0,0.5-0.5,0.5-0.7,0.5C547.1,266,547.1,265.9,546.9,265.2z M551.6,265.7c-0.1,0.2-0.2,0.4-0.5,0.4s-0.6-0.2-0.6-0.5
			c0-0.1,0-0.2,0.3-0.8c0-0.1,0.4-1.1,0.4-1.2c0.1-0.2,0.3-0.2,0.4-0.2c0.5,0,0.6,0.3,0.6,0.6C552.2,264.2,551.9,265,551.6,265.7z
			 M558.6,274.6c0,0.4,0,1-0.9,1c-0.9,0-1-0.7-1-1v-6.8h-1c-0.2,0-1,0-1-1c0-1,0.7-1,1-1h4.9c1.7,0,2.2,0.4,2.2,2.2v4.5
			c0,1.5-1.1,1.6-2.1,1.6c-0.9,0-1.7,0-1.7-1.3c0-0.9,0.6-0.9,1-0.9c0,0,0.6,0,0.6,0c0.2-0.1,0.3-0.2,0.3-0.5v-3
			c0-0.4-0.2-0.6-0.6-0.6h-1.7V274.6z M560.7,262.1c0.1,0,0.1,0,0.2,0c-0.8-1.1-1.4-2.2-2-3.6c-0.1-0.2-0.2-0.3-0.3-0.3
			c-0.1,0-0.2,0-0.3,0.3c-0.4,1.3-1,2.4-1.7,3.5c0.1,0,0.2,0,0.3,0H560.7z"/>
		<path class="st12" d="M529,307.1c-0.3,0-1.6,0-1.6-1.6c0-1.1,0.6-1.6,1.6-1.6h0.8c2.6,0,4.8-1.4,4.8-3.7c0-2.6-2.3-3.5-4.2-3.5
			c-2.3,0-3.7,0.9-4.6,1.5c-0.3,0.2-0.6,0.4-1,0.4c-0.9,0-1.6-0.9-1.6-1.7c0-0.9,0.7-1.4,1.3-1.7c0.9-0.6,3-1.9,6.2-1.9
			c4.5,0,7.8,2.7,7.8,6.6c0,3.5-2.5,4.8-3.5,5.3c1.4,0.5,5,1.8,5,6.4c0,3.6-2.7,7.6-10,7.6c-2.9,0-4.9-0.6-6.4-1.3
			c-0.6-0.3-1.3-0.6-1.3-1.6c0-0.9,0.6-1.9,1.5-1.9c0.3,0,0.4,0.1,1.6,0.5c1,0.3,2.3,0.8,4.5,0.8c4.8,0,6.2-2.6,6.2-4.6
			c0-1.3-0.7-4.1-6-4.1H529z"/>
		<path class="st12" d="M555.3,303.7v1.2h7.4c0.5,0,0.9,0.1,0.9,0.9c0,0.9-0.7,0.9-0.9,0.9h-1c0.2,0.3,0.5,0.9,0.5,1.1
			c0,0.1,0,0.2-0.1,0.3h0.4c0.3,0,1,0,1,0.9s-0.7,0.9-1,0.9h-4.4c0.2,2.3,0.5,3.7,0.8,4.5c0.4-0.7,0.5-0.9,1.5-2.9
			c0.1-0.2,0.3-0.5,0.8-0.5c0.3,0,0.9,0.2,0.9,0.8c0,0.6-1.2,3.1-2.4,4.7c0.3,0.6,1,1.9,1.5,1.9c0.4,0,0.6-0.7,0.8-1.4
			c0.1-0.4,0.2-0.7,0.7-0.7c0.5,0,1,0.4,1,0.9c0,0.2-0.6,3.6-2.5,3.6c-1.4,0-2.7-2.1-3-2.7c-1.5,1.4-3.1,2.4-3.7,2.4
			c-0.6,0-1-0.6-1-1.1c0-0.2,0-0.5,0.5-0.8c2.3-1.3,2.5-1.5,3.4-2.4c-0.9-2.5-1.2-6.1-1.2-6.3H548c-0.4,0-0.7,0.2-0.7,0.7v2.2
			c0,2.5-0.2,3.8-0.7,5.7c-0.5,1.8-0.8,2.1-1.4,2.1c-0.5,0-1.2-0.4-1.2-1.1c0-0.2,0.1-0.4,0.5-1.6c0.5-1.2,0.7-2.9,0.7-5.2v-2.4
			c0-1.5,0.6-2.1,2.1-2.1h8.7c0-0.5,0-1,0-1.4h-11c-0.6,0-0.9-0.3-0.9-0.9c0-0.8,0.7-0.9,0.9-0.9h2.5v-2.3c0-0.7,0.3-1.1,1.1-1.1
			c1,0,1.1,0.7,1.1,1.1v2.3h3.4v-3.1c0-0.7,0.4-1,1.1-1c0.5,0,1.1,0.1,1.1,0.8v0.5h6c0.4,0,0.9,0.1,0.9,0.8c0,0.8-0.7,0.8-0.9,0.8
			H555.3z M550.3,314.4c0,0.5-0.6,2.3-1,3.4c-0.4,1.1-0.6,1.3-1,1.3c-0.4,0-1-0.2-1-0.8c0-0.2,0-0.3,0.5-1.3c0.4-0.9,0.7-1.9,1-2.7
			c0.1-0.2,0.2-0.5,0.7-0.5C549.8,313.7,550.3,313.9,550.3,314.4z M552.9,318.4c0,1.3-0.4,1.7-1.7,1.7c-1.4,0-2,0-2-1
			c0-0.5,0.2-0.9,0.8-0.9c0.1,0,0.7,0,0.8,0c0.1,0,0.4-0.1,0.4-0.5v-5h-2.4c-0.2,0-0.9,0-0.9-0.8s0.7-0.9,0.9-0.9h6.3
			c0.2,0,0.9,0,0.9,0.8s-0.7,0.9-0.9,0.9h-2.1V318.4z M555.4,314.5c0.5,1.1,0.7,1.7,0.7,2.1c0,0.6-0.7,0.7-0.9,0.7
			c-0.5,0-0.6-0.1-0.9-1.3c-0.1-0.3-0.5-1.5-0.5-1.8c0-0.5,0.7-0.6,0.9-0.6C555.1,313.6,555.2,313.8,555.4,314.5z M558.1,306.6
			c0,0.2,0,1.2,0,1.4h2.2c-0.1-0.1-0.5-0.8-0.6-0.9c-0.1-0.2-0.1-0.3-0.1-0.4H558.1z"/>
	</g>
	<line class="st22" x1="503" y1="330.1" x2="503" y2="248.1"/>
	<g>
		<g>
			<line class="st22" x1="428.4" y1="280.8" x2="429.4" y2="280.8"/>
			<line class="st23" x1="431.4" y1="280.8" x2="579.5" y2="280.8"/>
			<line class="st22" x1="580.5" y1="280.8" x2="581.5" y2="280.8"/>
		</g>
	</g>
</g>
<g id="せりふ">
	<g id="ど">
	<animate
 		attributeName="opacity"
 		attributeType="XML"
 		begin="0.2"
 		dur="8s"
 		repeatCount="indefinite"
 		calcMode="discrete"
 		values="0;1;-1" />

		<path class="st24" d="M39.6,194.7c6.9,4.8,17,3.3,17,3.3"/>
		<path class="st24" d="M55.5,182c-0.2,7.5,3.5,22.4,9.4,22.8c12.3,0.8,12.1-15.6,11-18.2"/>
		<path class="st24" d="M43.3,171.2c2.9,2.3,6.8,2.8,10.1,4.1"/>
		<path class="st24" d="M47.6,164.8c1.1,1.1,6.7,3.5,7.9,3.9"/>
		<path class="st25" d="M39.6,194.7c6.9,4.8,17,3.3,17,3.3"/>
		<path class="st25" d="M55.5,182c-0.2,7.5,3.5,22.4,9.4,22.8c12.3,0.8,12.1-15.6,11-18.2"/>
		<path class="st25" d="M43.3,171.2c2.9,2.3,6.8,2.8,10.1,4.1"/>
		<path class="st25" d="M47.6,164.8c1.1,1.1,6.7,3.5,7.9,3.9"/>
	</g>
	<g id="う">
	<animate
 		attributeName="opacity"
 		attributeType="XML"
 		begin="0.4"
 		dur="8s"
 		repeatCount="indefinite"
 		calcMode="discrete"
 		values="0;1;-1" />

		<path class="st24" d="M59.1,140.8c0.9-3.4,7.2-9.5,7.2-9.5"/>
		<path class="st24" d="M73.1,153.4c-0.2-1-2.9-18.7,6.7-17.5c14.9,1.8,13.1,20,13.1,20"/>
		<path class="st25" d="M59.1,140.8c0.9-3.4,7.2-9.5,7.2-9.5"/>
		<path class="st25" d="M73.1,153.4c-0.2-1-2.9-18.7,6.7-17.5c14.9,1.8,13.1,20,13.1,20"/>
	</g>
	<g id="で">
	<animate
 		attributeName="opacity"
 		attributeType="XML"
 		begin="0.6"
 		dur="8s"
 		repeatCount="indefinite"
 		calcMode="discrete"
 		values="0;1;-1" />

		<path class="st24" d="M88.9,111.7c1.4-1.1,10.3-10.3,11.1-10.1c0.8,0.2-3.3,19.9,4.8,18.7c8.1-1.2,9-7.5,9-7.5"/>
		<path class="st24" d="M100.2,89.5c0.9,1,5.5,6.2,5.5,6.2"/>
		<path class="st24" d="M104.6,86.7c0.7,0.9,4.2,5,4.2,5"/>
		<path class="st25" d="M88.9,111.7c1.4-1.1,10.3-10.3,11.1-10.1c0.8,0.2-3.3,19.9,4.8,18.7c8.1-1.2,9-7.5,9-7.5"/>
		<path class="st25" d="M100.2,89.5c0.9,1,5.5,6.2,5.5,6.2"/>
		<path class="st25" d="M104.6,86.7c0.7,0.9,4.2,5,4.2,5"/>
	</g>
	<g id="も">
	<animate
 		attributeName="opacity"
 		attributeType="XML"
 		begin="0.8"
 		dur="8s"
 		repeatCount="indefinite"
 		calcMode="discrete"
 		values="0;1;-1" />

		<path class="st24" d="M120.3,74.5c7.2-5.7,15.2-11.5,15.2-11.5"/>
		<path class="st24" d="M129.2,81c2.1-2,9.3-9.2,9.3-9.2"/>
		<path class="st24" d="M126.8,64.1c0.6,0.7,9.5,20.9,16.6,22c7.1,1.1,7.5-7.4,5.7-9.7"/>
		<path class="st25" d="M120.3,74.5c7.2-5.7,15.2-11.5,15.2-11.5"/>
		<path class="st25" d="M129.2,81c2.1-2,9.3-9.2,9.3-9.2"/>
		<path class="st25" d="M126.8,64.1c0.6,0.7,9.5,20.9,16.6,22c7.1,1.1,7.5-7.4,5.7-9.7"/>
	</g>
	<g id="い1">
	<animate
 		attributeName="opacity"
 		attributeType="XML"
 		begin="1.0"
 		dur="8s"
 		repeatCount="indefinite"
 		calcMode="discrete"
 		values="0;1;-1" />

		<path class="st26" d="M160.6,51.6c2.1,4.4,11.9,17.9,15.1,18.6c3.1,0.7,4.7-6,4.7-6"/>
		<path class="st26" d="M193.9,41c0.4,1.3,2.6,17.4,2.6,17.4"/>
		<path class="st27" d="M160.6,51.6c2.1,4.4,11.9,17.9,15.1,18.6c3.1,0.7,4.7-6,4.7-6"/>
		<path class="st27" d="M193.9,41c0.4,1.3,2.6,17.4,2.6,17.4"/>
	</g>
	<g id="い2">
	<animate
 		attributeName="opacity"
 		attributeType="XML"
 		begin="1.2"
 		dur="8s"
 		repeatCount="indefinite"
 		calcMode="discrete"
 		values="0;1;-1" />

		<path class="st26" d="M217.9,32c-0.3,1.6-1.1,10.2,1.9,11.8c3,1.5,8.9-4.6,8.9-4.6"/>
		<path class="st26" d="M246.1,26.3c1,2.4,2.1,9.5,2.1,9.5"/>
		<path class="st27" d="M217.9,32c-0.3,1.6-1.1,10.2,1.9,11.8c3,1.5,8.9-4.6,8.9-4.6"/>
		<path class="st27" d="M246.1,26.3c1,2.4,2.1,9.5,2.1,9.5"/>
	</g>
	<g id="_x301C_">
	<animate
 		attributeName="opacity"
 		attributeType="XML"
 		begin="1.4"
 		dur="8s"
 		repeatCount="indefinite"
 		calcMode="discrete"
 		values="0;1;-1" />

		<path class="st26" d="M268.7,29.1c2.4-2.3,12.4-3.1,14.9,0.2c2.5,3.3,4.2,7.9,10.6,8.9c6.4,1.1,9.5-3.1,9.6-3.7"/>
		<path class="st27" d="M268.7,29.1c2.4-2.3,12.4-3.1,14.9,0.2c2.5,3.3,4.2,7.9,10.6,8.9c6.4,1.1,9.5-3.1,9.6-3.7"/>
	</g>
	<g id="_xFF01_">
	<animate
 		attributeName="opacity"
 		attributeType="XML"
 		begin="1.6"
 		dur="8s"
 		repeatCount="indefinite"
 		calcMode="discrete"
 		values="0;1;-1" />

		<path class="st28" d="M314.3,57.2c-0.4,0.3-0.7,0.4-0.9,0.9c0.7-0.1,1.2-0.7,1.4-1.4c-0.9,0-0.9,0.1-1.1,1c0.8,0.2,1.3-0.1,1.3-1
			c-0.2-0.1-0.4-0.1-0.6-0.1"/>
		<path class="st29" d="M329.3,29.3c-3.1,3-13,19.5-10.7,20.1C321,50,332.3,32.3,332,30.6C331.6,28.9,329.3,29.3,329.3,29.3z"/>
		<path class="st30" d="M314.3,57.2c-0.4,0.3-0.7,0.4-0.9,0.9c0.7-0.1,1.2-0.7,1.4-1.4c-0.9,0-0.9,0.1-1.1,1c0.8,0.2,1.3-0.1,1.3-1
			c-0.2-0.1-0.4-0.1-0.6-0.1"/>
		<path class="st31" d="M329.3,29.3c-3.1,3-13,19.5-10.7,20.1C321,50,332.3,32.3,332,30.6C331.6,28.9,329.3,29.3,329.3,29.3z"/>
	</g>
</g>
</svg>
